<svg xmlns="http://www.w3.org/2000/svg" viewBox="0 0 58.92 34.37"><path fill="#3d9635" d="M0 0h58.92v34.37H0z"/><path d="M16.67 9.74c-.06.8-.13 2.22.55 2.36.83.08.37-1.4.67-1.66.06-.13.16-.13.17.03v1.25c-.01.41.26.53.47.61.22-.02.36-.01.45.2.03.72.07 1.44.1 2.17 0 0 .5.14.53-1.22.02-.8-.16-1.47-.05-1.63 0-.15.2-.16.33-.09.22.15.31.34.65.27.51-.14.82-.39.83-.78-.03-.37-.07-.74-.23-1.12.02-.07-.1-.24-.08-.31.09.14.23.13.26 0-.09-.29-.22-.56-.44-.68-.18-.16-.44-.13-.54.21-.04.38.14.84.42 1.2.06.15.14.39.11.6-.15.08-.3.05-.42-.08 0 0-.41-.31-.41-.37.11-.69.02-.77-.04-.96-.04-.26-.17-.35-.27-.53-.1-.11-.24-.11-.3 0-.18.31-.1.98.03 1.28.09.27.24.45.17.45-.06.16-.17.12-.26-.06-.12-.37-.14-.92-.14-1.17-.04-.31-.08-.97-.28-1.14-.12-.17-.31-.09-.37.07-.01.3-.01.61.02.89.14.5.18.93.25 1.44.02.68-.39.3-.37-.04.1-.43.07-1.13-.01-1.3-.07-.17-.15-.22-.31-.19-.13-.01-.46.35-.56.96 0 0-.08.31-.11.58-.05.31-.25.53-.4-.04-.13-.41-.21-1.44-.42-1.2" fill="#fff"/><path d="M18.92 13.04c-.73.36-1.43.69-2.15 1.03.03-.49 1.02-1.37 1.7-1.38.44.02.33.17.45.35" fill="#fff"/><path d="M21.66 8.49c-.04 0-.09.03-.14.04-.17.05-.34.2-.29.5.21 1.26.34 2.22.55 3.48.03.15-.09.34-.25.32-.27-.18-.34-.56-.8-.54-.33 0-.72.37-.77.72-.06.28-.08.58 0 .82.24.28.52.26.77.19.2-.08.37-.29.44-.24.04.08-.01.73-.96 1.24-.59.26-1.05.33-1.3-.15-.16-.3.01-1.44-.37-1.18-1.13 2.92 2.65 3.33 3.08.12.03-.09.11-.18.17-.16.03.01.05.05.06.11-.09 2.9-2.93 3.1-3.41 2.19-.12-.21-.16-.69-.17-.98-.02-.17-.07-.27-.12-.31-.12-.09-.27.14-.3.53-.05.31-.03.4-.03.7.15 2.3 3.81 1.31 4.4-.59.3-.98 0-1.72.09-1.81h.01c.37.39.87.05.99-.08.05-.07.17-.11.25-.02.28.2.78.11.88-.25.06-.35.11-.71.12-1.08-.19.06-.33.1-.39.16-.01.02-.02.03-.03.05-.01.1-.03.21-.05.31 0 .01 0 .02-.01.02-.01.01-.02.03-.03.03-.06.04-.18.01-.18-.08-.09-.4-.45-.45-.67.17-.15.12-.42.14-.44-.04.04-.42-.13-.47-.47-.27-.11-.82-.22-1.61-.32-2.43.14 0 .27.1.39-.06-.14-.43-.43-1.3-.59-1.39l-.02-.02-.01-.01-.01-.01c-.01 0-.01-.01-.02-.01-.02.01-.03.01-.05.01M20.64 13c.07-.01.16.02.2.13.03.09 0 .17-.04.22-.03.04-.13.02-.2.02-.09 0-.13-.02-.18-.09-.03-.08.05-.15.08-.21 0-.01.01-.01.01-.02.04-.02.08-.04.13-.05" fill="#fff"/><path d="M24.21 8.43c-.1 0-.18.03-.26.07-.19.18-.23.47-.08.65.14.07.29.21.19.29-.41.43-1.46 1.16-1.52 1.29.05.04.72.04.79 0 .23-.09 1.31-1.32 1.31-1.32-.06-.05-.11-.08-.16-.13-.06-.05-.05-.1 0-.15.27-.16.18-.5.04-.65a.675.675 0 0 0-.31-.05m-.05.38c.07-.01.14.06.19.14.04.09.02.18-.05.2-.07.02-.16-.05-.2-.14-.04-.09-.02-.18.05-.19 0-.01 0-.01.01-.01M16.84 15.11c-.4.65-.44 1.61-.22 1.89.12.13.31.2.46.15.26-.11.37-.63.3-.81-.08-.13-.15-.15-.24-.04-.18.36-.25.11-.27-.09-.03-.39.01-.74.05-1.02.06-.29.01-.2-.08-.08M34.1 14.08c-.39-.84-.93-1.67-1.1-1.99-.17-.32-1.47-2.2-1.66-2.42-.42-.5.69.21-.14-.79-.31-.27-.33-.29-.59-.51-.13-.09-.45-.26-.51.02-.03.25-.01.39.03.59.03.14.23.37.33.51 1.32 1.77 2.48 3.56 3.61 5.81.18-.08.14-1.08.03-1.22" fill="#fff"/><path d="M32.39 16.89c-.08.09.19.46.54.45.58-.07 1.09-.39 1.56-1.25.13-.2.35-.63.35-.96.04-1.94-.1-3.45-.39-4.86-.02-.14-.01-.3.01-.34.04-.04.17 0 .23-.11.1-.1-.26-.94-.47-1.26-.07-.14-.1-.24-.22.02-.13.21-.21.57-.2.91.28 1.91.36 3.58.54 5.5.01.19-.01.45-.14.56-.44.49-1.1 1.07-1.81 1.34M40.21 16.88c-.42.24-.42.52-.08.53.58-.07 1.26-.11 1.74-.83.13-.2.28-.74.28-1.07.04-1.94-.02-3.84-.32-5.24-.02-.14-.08-.45-.06-.49.04-.09.22.01.29-.1.1-.1-.49-.86-.69-1.18-.07-.14-.1-.24-.22.02-.13.21-.17.58-.12.91.31 2.08.54 4.08.58 5.93-.03.18-.03.27-.11.49-.18.23-.38.52-.57.66-.19.13-.59.26-.72.37" fill="#fff"/><path d="M40.52 15.02c-.01-.48.01-.9-.01-1.27-.02-.36-.18-1.72-.24-2.01-.06-.29-.11-.73-.19-1.08-.02-.14-.09-.57-.07-.61.03-.1.16 0 .23-.11.1-.1-.33-1.21-.55-1.52-.08-.14-.22-.09-.39.14-.16.15-.1.49-.04.83.42 2.17.73 4.44.66 6.5-.03.16.6-.54.6-.87M37.45 12.33c-.26-.01-.81-.51-.97-.8a.556.556 0 0 1 .03-.43c.1-.06.25-.13.36-.07 0 0 .11.16.09.18.14.07.2.03.22-.03.01-.1-.04-.16-.04-.27.06-.3.41-.35.54-.16.1.12.13.37.14.54 0 .09-.14-.02-.22 0-.08.02-.1.11-.11.2-.01.22-.04.57-.04.84M32.63 15.56c.07-.66-.03-2.01-.03-2.4-.03-.92-.18-2.7-.25-2.99-.08-.56.23.06.19-.27-.1-.56-.41-.94-.78-1.45-.12-.17-.11-.2-.29.04-.2.46-.03.77.02 1.12.26 1.15.42 2.22.49 3.27.07 1.05.09 2.36.03 3.46.19.02.51-.31.62-.78" fill="#fff"/><path d="M41.41 14.5c-.46-.77-1.15-1.68-1.34-1.99-.19-.31-1.76-2.61-1.96-2.82-.58-.6.26-.1-.11-.56-.32-.35-.41-.45-.68-.66-.14-.09-.22-.25-.26.03-.02.25-.04.54-.02.75 0 .12.12.34.22.47 1.39 1.71 2.91 3.81 4.14 6 .18-.1.12-1.08.01-1.22M35.83 23.62c-.41.11-.4.53-.13.72-4.3 0-10.91-.07-12.32-.07-.79 0-3.3-.09-3.35-.09.54.79 1.32.95 2.33.96 1.91 0 10.77-.02 13.29-.02-.18.32.02.83.16.92l.01.01s.01 0 .02.01c.17.04.24-.08.3-.17.27.02 1.79.05 1.93 0 .09.14.19.27.37.25.31-.07.56-.1.57-.74 0 0-.03-1.09-.75-1.02-.17.02-.64.07-.64.07-.55-.07-.95-.07-1.57-.1.06-.07.16-.36.04-.47a.27.27 0 0 0-.15-.04h-.01l-.01-.01c-.03-.04-.05-.16-.07-.19l-.02-.02m.29 1.55s0 .01 0 0c.63.03 1.22.01 1.85.04.1.09.05.28-.01.32h-.03c-.21-.01-.32-.01-.53-.01v-.03c-.05-.14-.4-.13-.48-.02v.02s0 .01-.01.01v.04c-.28.03-.52-.01-.8-.02-.09-.12-.08-.3.01-.35M24.94 9.08c-.42 1.2.24 2.51.7 2.39.33.14.54-.49.67-1.18.09-.19.16-.21.21-.11-.01.92.07 1.12.3 1.39.52.4.96.05.99.02.03-.04.41-.41.41-.41.09-.1.21-.1.34-.02.12.11.11.31.37.45.22.09.7.02.82-.17.15-.26.19-.34.26-.44.11-.14.29-.08.29-.03-.02.08-.12.16-.05.3.13.1.16.03.23.01.27-.13.47-.71.47-.71.01-.22-.11-.2-.19-.15-.1.06-.11.08-.21.15-.13.02-.38.1-.51-.09-.13-.23-.13-.56-.23-.79 0-.02-.17-.37-.01-.39.08.01.25.06.28-.08.08-.14-.18-.53-.36-.73-.15-.17-.37-.19-.58-.02-.14.12-.12.27-.15.41-.04.16-.03.36.14.58.15.29.41.66.32 1.17 0 0-.15.25-.42.21-.11-.03-.29-.07-.39-.79-.07-.54.02-1.31-.21-1.66-.08-.21-.14-.42-.35-.05-.06.14-.29.36-.12.82.14.29.19.75.13 1.27-.1.15-.12.2-.25.35-.18.19-.37.14-.52.07-.14-.09-.25-.14-.31-.44.01-.47.04-1.24-.05-1.41-.13-.25-.34-.16-.42-.09-.43.39-.64 1.05-.77 1.58-.12.39-.25.27-.33.12-.23-.2-.24-1.79-.5-1.53" fill="#fff"/><path d="M26.35 11.56s-.01 0-.01.01c-.03.02-.06.07-.14.12-.12.14-.14.24-.14.52.01.03.23.66.42 1.1.13.46.25.99.16 1.49-.3.66-.91 1.25-1.5 1.57-.3.09-.56.06-.63 0a.398.398 0 0 1-.17-.36c.5-.35 1.06-.63 1.51-1.56.13-.36.17-.57.04-1.12-.05-.2-.12-.37-.26-.52.08-.04.3.12.34.02-.05-.26-.23-.61-.43-.8-.17-.16-.37-.18-.53-.03-.18.1-.22.46-.13.79.1.24.36.28.55.76 0 .03.06.36-.03.5-.08.24-1.06 1.01-1.13 1.06h-.01v-.01-.15c-.01-.14.05-.47.05-.53-.33.21-.43.85-.49 1.05-.82.57-1.76.99-2.3 1.57-.28.44 1.93-.5 2.19-.62 0 0 .01 0 .01.01.05.05.05.24.2.41.23.31.72.5 1.19.39.8-.29 1.26-.83 1.73-1.44.07-.1.17-.17.27-.1.32.72 1.25 1.23 2.45 1.28.28-.34.15-.5.03-.57-.03-.02-.59-.24-.68-.46-.06-.2.08-.38.35-.52.77-.09 1.53-.2 2.26-.43.01-.25.15-.61.25-.77.07-.11.11-.12.13-.14v-.02l-.12-.07-2.46-.01c-.03-.01-.05-.02-.07-.03v-.01c.01-.02.04-.03.08-.05.59-.08 1.63-.25 1.7-1.25-.01-.52-.22-.86-.86-.96-.47.04-.81.49-.75.99-.02.14.05.4-.09.43-.9.08-1.89.65-1.92 1.05h-.01-.03c-.06-.02-.13-.11-.12-.25-.03-.7-.26-1.49-.62-2.1-.13-.13-.18-.18-.22-.18h-.06v-.06m3.59.9c.05-.01.12.01.19.05.1.06.16.14.15.2v.04s-.01.01-.01.02c-.05.04-.15.04-.26-.02-.1-.06-.16-.14-.15-.2v-.01c0-.01 0-.01.01-.02v-.01c0-.01.01-.01.01-.01.02-.03.04-.04.06-.04m-2.28 2.07h.02c.27.07.68.08 1.03.12.28.02.43.24.16.34-.26.09-.52.16-.52.54.03.19.03.29 0 .33l-.01.01-.01.01h-.01c-.07.01-.16-.05-.23-.09-.16-.12-.62-.4-.68-1.01-.02-.12.08-.24.25-.25M19.77 9.1c.28.14.81.08.79-.38 0-.04-.01-.18-.02-.21-.06-.14-.21-.1-.25.04-.01.05.02.12-.02.14-.02.02-.11.01-.11-.11 0-.04-.03-.08-.05-.11-.02-.01-.03-.01-.06-.01-.04 0-.04.01-.06.04a.36.36 0 0 0-.02.11c-.01.05-.02.06-.06.07-.04 0-.03 0-.06-.01-.02-.02-.04-.03-.04-.06a.36.36 0 0 0-.02-.11c-.01-.02-.04-.03-.07-.04-.15 0-.16.18-.16.24.01-.01 0 .31.21.4" fill="#fff"/><path d="M28.06 12.61c.28.13.96.06.79-.38 0-.04-.01-.18-.01-.21-.06-.13-.22-.1-.25.04-.01.05.02.12-.02.14-.02.02-.11.01-.11-.12 0-.04-.03-.08-.05-.11-.02-.01-.03-.02-.06-.02-.04 0-.04.01-.06.05-.01.03-.02.07-.02.1-.01.05-.02.06-.06.07-.03 0-.03.01-.06-.01-.02-.02-.04-.03-.04-.06a.36.36 0 0 0-.02-.11c-.01-.02-.04-.03-.07-.04-.15 0-.16.18-.16.24 0 .01-.01.33.2.42M32.89 11.15c.28.14.81.08.79-.38 0-.04-.01-.18-.01-.21-.06-.14-.22-.1-.25.04-.01.05.02.12-.02.14-.02.02-.11.01-.11-.12 0-.04-.03-.08-.05-.11-.02-.01-.03-.01-.06-.01-.04 0-.04.01-.06.04-.01.04-.02.07-.02.11 0 .05-.02.06-.06.07-.04 0-.03.01-.06-.01-.02-.02-.04-.03-.04-.06 0-.04-.01-.09-.02-.11a.161.161 0 0 0-.07-.04c-.15 0-.17.18-.16.24 0 .01-.01.32.2.41M35.4 14.8c-.49.56-.28 1.48-.16 1.67.16.32.29.53.61.69.29.21.51.08.64-.07.29-.3.29-1.07.43-1.22.1-.28.34-.23.45-.11.11.16.25.27.41.36.27.24.59.28.91.07.22-.12.36-.28.49-.59.14-.38.06-2.44.03-3.47-.01-.08-.28-1.42-.28-1.44 0-.02-.03-.69-.07-.85 0-.07-.02-.08.05-.08.07.06.08.07.13.09.07.01.14-.11.09-.23-.22-.42-.45-.83-.67-1.24-.05-.06-.13-.11-.21.02a.5.5 0 0 0-.17.37c.02.3.07.6.09.89l.27 1.51c.08 1.08.11 2.07.19 3.15-.01.45-.15 1.06-.29 1.12 0 0-.2.12-.34-.01-.1-.04-.5-.66-.5-.66-.2-.19-.34-.13-.48 0-.4.38-.57 1.1-.85 1.6-.07.11-.27.2-.48-.01-.55-.76-.23-1.84-.29-1.56M33.02 8.51c.25.11.43.62.37.87-.05.31-.19.64-.28.6-.11-.04.07-.31-.03-.59-.06-.18-.4-.52-.36-.62-.07-.21.14-.3.3-.26" fill="#fff"/><path d="M36.21 15.1c.05-.61-.04-.99-.05-1.35-.02-.36-.41-3.3-.49-3.57-.1-.52.38-.07.33-.37-.17-.38-.58-.93-.71-1.26-.08-.14-.04-.27-.22-.04-.16.53-.22.96-.15 1.29.42 2.17.84 4.15.77 6.21.2-.01.42-.46.52-.91M40.54 9.24c.23.12.37.76.34.94-.05.34-.17.7-.26.65-.1-.04.02-.5-.03-.64-.05-.2-.37-.56-.33-.67-.06-.22.14-.32.28-.28M23.38 13.94c.22.08.35.56.33.69-.05.25-.16.51-.25.48-.09-.03.02-.37-.03-.47-.02-.25-.32-.38-.32-.49-.06-.2.13-.24.27-.21M17.47 8.35c.32.1.34.58.32.72-.05.25-.16.53-.24.49-.09-.03 0-.38-.05-.49-.05-.15-.32-.43-.29-.51-.06-.16.13-.24.26-.21M23.91 10.61c-.25.14-.35.54-.19.77.15.21.38.13.4.13.25.03.39-.46.39-.46s.01-.14-.28.12c-.12.02-.14-.02-.17-.09a.554.554 0 0 1 .04-.38c.04-.12-.05-.17-.19-.09M25.78 8.17c-.13.08-.38.34-.38.64-.01.17-.04.17.07.28.08.11.16.1.32.02.09-.07.12-.11.15-.23.04-.19-.2.09-.23-.12-.05-.2.1-.28.25-.47.01-.14 0-.23-.18-.12M27.3 8.44c-.05.12-.12.74-.11.74-.04.19.19.27.3.03.16-.44.16-.63.17-.81-.05-.29-.24-.28-.36.04M36.82 13.28c.03-.03 1.34-.96 1.34-.96.13-.05.1.48.04.48.03.1-1.29 1-1.39.96-.05.05-.12-.36.01-.48M38.02 13.28c.23.12.32.79.3.98.01.36-.22.64-.31.6-.09-.04.01-.44-.04-.58-.05-.2-.25-.57-.21-.68-.07-.24.12-.36.26-.32M30.23 16.19c.09-.13.37-.33.38-.33.13-.07.26.05.25.04.02.13-.08.25-.05.43.03.07.05.15.18.12.21-.16.4-.17.61-.19.16.01.17.28.06.28-.38.08-.56.19-.83.29-.13.08-.24-.02-.24-.03 0-.01-.08-.07-.02-.25.01-.14-.04-.21-.16-.2-.09.05-.16.08-.21-.02-.03-.07-.03-.1.03-.14M39.4 16.55c.06.07.09.14 0 .26-.09.08-.16.13-.25.21-.04.08-.07.19.06.22.25.07.81-.3.81-.31.09-.07.06-.2.05-.2-.05-.06-.17-.03-.26-.04-.04 0-.17-.02-.1-.13.05-.07.07-.11.1-.2.04-.08 0-.14-.13-.19-.14-.03-.2-.01-.35 0-.08.02-.11.06-.13.16 0 .17.1.16.2.22" fill="#fff"/></svg>