<svg xmlns="http://www.w3.org/2000/svg" viewBox="0 0 58.92 34.37"><path fill="#438fc3" d="M0 0h58.92v34.37H0z"/><path fill="#d6003f" d="M0 11.46h58.92v11.46H0z"/><path fill="#48ae68" d="M0 22.91h58.92v11.46H0z"/><path d="M30.62 21.2a4.01 4.01 0 1 1 0-8.02c.8 0 1.55.24 2.18.64a4.794 4.794 0 0 0-3.44-1.44c-2.66 0-4.81 2.15-4.81 4.81 0 2.66 2.15 4.81 4.81 4.81 1.35 0 2.56-.55 3.44-1.44-.63.4-1.37.64-2.18.64" fill="#fff"/><path fill="#fff" d="M36.05 19.01l-1.31-.6-.51 1.35-.51-1.35-1.31.6.6-1.32-1.36-.51 1.36-.5-.6-1.32 1.32.6.51-1.35.5 1.35 1.32-.6-.6 1.32 1.35.51-1.35.51z"/></svg>