<svg xmlns="http://www.w3.org/2000/svg" viewBox="0 0 58.92 34.37"><path fill="#3c9242" d="M0 0h58.92v34.37H0z"/><path fill="#edc226" d="M9.08 17.18L29.46 30.2l20.38-13.02L29.46 4.17z"/><path d="M38.06 17.18c0 4.74-3.85 8.59-8.59 8.59s-8.59-3.85-8.59-8.59 3.85-8.59 8.59-8.59 8.59 3.85 8.59 8.59" fill="#2d146e"/><path d="M24.55 13.5c-1 0-1.99.07-2.95.21-.18.42-.34.86-.46 1.31 1.11-.19 2.25-.29 3.41-.29 5.04 0 9.63 1.9 13.11 5.02.14-.44.24-.89.31-1.36a20.79 20.79 0 0 0-13.42-4.89" fill="#fff"/><path d="M22.13 14.67c.2-.02.34-.22.32-.45-.03-.22-.21-.39-.42-.36-.2.02-.34.23-.32.45.04.23.22.39.42.36m-.01-.15c.12-.01.2-.14.18-.28-.02-.14-.13-.24-.25-.23-.12.01-.2.14-.18.28.02.14.13.25.25.23M22.8 14.6l.15-.01-.02-.3.32-.02a.26.26 0 0 0 .24-.28.256.256 0 0 0-.27-.24l-.47.03.05.82zm.12-.47l.31-.02c.06 0 .1-.05.1-.11-.01-.06-.05-.1-.11-.1l-.32.02.02.21z" fill-rule="evenodd" clip-rule="evenodd" fill="#3c9242"/><path d="M23.49 14.55c-.01-.12-.03-.38-.2-.36l-.22.02c.26-.02.27.24.28.35" fill="#3c9242"/><path d="M23.84 14.53l.39-.01c.2 0 .35-.16.35-.36v-.12c0-.19-.16-.35-.36-.35l-.39.01.01.83zm.15-.15l.22-.01c.12 0 .22-.1.22-.22v-.07c0-.12-.1-.22-.23-.22h-.22l.01.52z" fill-rule="evenodd" clip-rule="evenodd" fill="#3c9242"/><path fill="#3c9242" d="M24.88 14.52l.73.03.01-.15-.6-.02.01-.21.47.01v-.14l-.47-.01.01-.17.56.02.01-.15-.71-.02zM25.91 14.57l.15.01.04-.56.12.57.13.02.21-.55-.05.56.14.01.07-.81-.2-.02-.22.54-.11-.57-.2-.02zM27.61 14.76l.61.1.02-.13-.47-.08.03-.19.38.07.03-.14-.38-.07.02-.12.45.08.03-.14-.6-.11z"/><path d="M29.16 15.06l.15.04.08-.29.32.08c.14.04.28-.05.32-.18a.256.256 0 0 0-.19-.31l-.45-.12-.23.78zm.27-.4l.31.08c.05.01.11-.02.13-.08s-.02-.11-.08-.13l-.3-.08-.06.21zM30.17 15.33l.14.05.09-.29.31.1c.13.04.28-.03.32-.17.04-.14-.03-.28-.17-.32l-.45-.14-.24.77zm.28-.39l.3.1c.05.02.11-.01.13-.07.02-.06-.01-.11-.07-.13l-.3-.09-.06.19z" fill-rule="evenodd" clip-rule="evenodd" fill="#3c9242"/><path d="M30.83 15.54c.04-.11.11-.35-.05-.41l-.21-.07c.25.08.17.32.13.43" fill="#3c9242"/><path d="M31.5 15.78c.19.07.41-.04.49-.25.08-.21-.01-.44-.2-.51s-.41.04-.49.25c-.08.21.01.44.2.51m.06-.14c.11.04.24-.03.29-.16.05-.13 0-.27-.11-.32-.11-.04-.24.03-.29.17-.06.13-.01.27.11.31M32.47 16.17c.19.08.41-.02.5-.23.09-.21.01-.44-.17-.52-.19-.08-.41.02-.5.23-.1.21-.02.44.17.52m.06-.14c.11.05.24-.02.3-.15s.01-.28-.1-.32c-.11-.05-.24.02-.3.15s-.01.27.1.32" fill-rule="evenodd" clip-rule="evenodd" fill="#3c9242"/><path fill="#3c9242" d="M32.918 16.041l-.284-.123.047-.11.285.123z"/><path fill="#3c9242" d="M32.806 16.322l-.11-.047.162-.377.11.048z"/><path d="M33.08 16.45l.14.07.14-.27.29.14c.13.07.28.01.35-.11.06-.13.01-.28-.12-.35l-.42-.21-.38.73zm.34-.34l.28.14c.05.03.11.01.14-.05.02-.05.01-.12-.05-.14l-.28-.14-.09.19z" fill-rule="evenodd" clip-rule="evenodd" fill="#3c9242"/><path d="M33.7 16.76c.05-.1.17-.33.01-.41l-.2-.1c.23.11.11.35.06.45M34 16.92l.64.36.08-.13-.52-.3.1-.18.41.23.07-.12-.41-.23.08-.14.49.27.08-.13-.61-.35zM35.2 17.32c-.04.07 0 .15.1.21s.17.06.19.02c.09-.14-.43-.35-.27-.59.14-.21.37-.05.46.01.09.06.23.2.12.37l-.15-.1c.05-.07 0-.15-.08-.19-.07-.05-.14-.07-.18 0-.08.11.43.33.28.57-.11.18-.31.1-.45.02-.11-.07-.28-.24-.17-.41l.15.09zM36.08 17.9c-.05.07-.01.15.09.21s.16.07.19.03c.1-.13-.41-.37-.24-.6.15-.2.38-.03.46.03.08.06.22.21.1.38l-.14-.1c.05-.07 0-.14-.07-.2-.07-.05-.13-.08-.18-.01-.08.11.41.35.24.59-.12.17-.32.09-.45-.01-.11-.08-.27-.26-.15-.42l.15.1z" fill="#3c9242"/><path d="M36.91 18.84c.16.13.4.09.54-.09s.13-.42-.03-.55c-.16-.13-.4-.09-.54.09-.15.18-.13.42.03.55m.09-.12c.09.07.24.05.33-.07.09-.11.09-.26-.01-.34-.09-.07-.24-.04-.33.07-.09.11-.08.27.01.34" fill-rule="evenodd" clip-rule="evenodd" fill="#3c9242"/><path fill="#fff" d="M22.45 15.27l-.12.35.18.06z"/><path fill="#fff" d="M22.45 15.27l.11.35-.17.06z"/><path fill="#fff" d="M22.8 15.53h-.37v.18z"/><path fill="#fff" d="M22.8 15.53l-.3.21-.11-.14z"/><path fill="#fff" d="M22.1 15.53l.3.21.1-.14z"/><path fill="#fff" d="M22.1 15.53h.37v.18z"/><path fill="#fff" d="M22.66 15.94l-.11-.35-.18.06z"/><path fill="#fff" d="M22.66 15.94l-.29-.22.1-.15z"/><path fill="#fff" d="M22.23 15.94l.3-.22-.11-.15z"/><path fill="#fff" d="M22.23 15.94l.11-.35.18.06zM23.21 18.89l-.12.35.18.05z"/><path fill="#fff" d="M23.21 18.89l.11.35-.17.05z"/><path fill="#fff" d="M23.56 19.14h-.37v.18z"/><path fill="#fff" d="M23.56 19.14l-.3.22-.11-.15z"/><path fill="#fff" d="M22.86 19.14l.29.22.11-.15z"/><path fill="#fff" d="M22.86 19.14h.37v.18z"/><path fill="#fff" d="M23.42 19.55l-.11-.35-.18.06z"/><path fill="#fff" d="M23.42 19.55l-.29-.21.1-.15z"/><path fill="#fff" d="M22.99 19.55l.3-.21-.11-.15z"/><path fill="#fff" d="M22.99 19.55l.12-.35.17.06zM22.16 19.78l-.08.23.12.04z"/><path fill="#fff" d="M22.16 19.78l.07.23-.12.04z"/><path fill="#fff" d="M22.39 19.95h-.25v.12z"/><path fill="#fff" d="M22.39 19.95l-.2.14-.07-.1z"/><path fill="#fff" d="M21.92 19.95l.2.14.07-.1z"/><path fill="#fff" d="M21.92 19.95h.25v.12z"/><path fill="#fff" d="M22.3 20.22l-.08-.23-.11.04z"/><path fill="#fff" d="M22.3 20.22l-.2-.14.07-.1z"/><path fill="#fff" d="M22.01 20.22l.2-.14-.07-.1z"/><path fill="#fff" d="M22.01 20.22l.08-.23.11.04zM24.05 18.55l-.05.17.08.03z"/><path fill="#fff" d="M24.05 18.55l.05.17-.08.03z"/><path fill="#fff" d="M24.22 18.67h-.18v.09z"/><path fill="#fff" d="M24.22 18.67l-.15.11-.05-.07z"/><path fill="#fff" d="M23.88 18.67l.14.11.06-.07z"/><path fill="#fff" d="M23.88 18.67h.18v.09z"/><path fill="#fff" d="M24.15 18.87l-.05-.17-.08.03z"/><path fill="#fff" d="M24.15 18.87l-.14-.1.05-.07z"/><path fill="#fff" d="M23.95 18.87l.14-.1-.05-.07z"/><path fill="#fff" d="M23.95 18.87l.05-.17.08.03zM25 19.8l-.1.29.15.05z"/><path fill="#fff" d="M25 19.8l.09.29-.15.05z"/><path fill="#fff" d="M25.29 20.01h-.31v.16z"/><path fill="#fff" d="M25.29 20.01l-.25.18-.09-.12z"/><path fill="#fff" d="M24.7 20.01l.25.18.09-.12z"/><path fill="#fff" d="M24.7 20.01h.31v.16z"/><path fill="#fff" d="M25.18 20.35l-.1-.29-.14.05z"/><path fill="#fff" d="M25.18 20.35l-.25-.18.09-.12z"/><path fill="#fff" d="M24.82 20.35l.24-.18-.09-.12z"/><path fill="#fff" d="M24.82 20.35l.09-.29.15.05zM24.74 20.65l-.1.3.15.04z"/><path fill="#fff" d="M24.74 20.65l.09.3-.14.04z"/><path fill="#fff" d="M25.03 20.87h-.31v.15z"/><path fill="#fff" d="M25.03 20.87l-.25.18-.09-.13z"/><path fill="#fff" d="M24.45 20.87l.25.18.09-.13z"/><path fill="#fff" d="M24.45 20.87h.3v.15z"/><path fill="#fff" d="M24.92 21.21l-.1-.29-.14.04z"/><path fill="#fff" d="M24.92 21.21l-.25-.18.09-.13z"/><path fill="#fff" d="M24.56 21.21l.25-.18-.09-.13z"/><path fill="#fff" d="M24.56 21.21l.09-.29.15.04zM32.13 14.15l-.12.35.18.06z"/><path fill="#fff" d="M32.13 14.15l.11.35-.17.06z"/><path fill="#fff" d="M32.48 14.4h-.37v.19z"/><path fill="#fff" d="M32.48 14.4l-.3.22-.11-.15z"/><path fill="#fff" d="M31.78 14.4l.3.22.1-.15z"/><path fill="#fff" d="M31.78 14.4h.37v.19z"/><path fill="#fff" d="M32.34 14.82l-.11-.35-.18.05z"/><path fill="#fff" d="M32.34 14.82l-.29-.22.1-.15z"/><path fill="#fff" d="M31.91 14.82l.3-.22-.11-.15z"/><path fill="#fff" d="M31.91 14.82l.11-.35.18.05zM35.48 19.83l-.11.35.18.06z"/><path fill="#fff" d="M35.48 19.83l.12.35-.18.06z"/><path fill="#fff" d="M35.83 20.09h-.36v.18z"/><path fill="#fff" d="M35.83 20.09l-.3.21-.1-.15z"/><path fill="#fff" d="M35.13 20.09l.3.21.11-.15z"/><path fill="#fff" d="M35.13 20.09h.37v.18z"/><path fill="#fff" d="M35.7 20.5l-.11-.35-.18.05z"/><path fill="#fff" d="M35.7 20.5l-.3-.22.11-.15z"/><path fill="#fff" d="M35.27 20.5l.3-.22-.11-.15z"/><path fill="#fff" d="M35.27 20.5l.11-.35.18.05zM36.68 20.04l-.08.23.12.04z"/><path fill="#fff" d="M36.68 20.04l.07.23-.12.04z"/><path fill="#fff" d="M36.91 20.21h-.25v.12z"/><path fill="#fff" d="M36.91 20.21l-.2.14-.07-.1z"/><path fill="#fff" d="M36.44 20.21l.2.14.07-.1z"/><path fill="#fff" d="M36.44 20.21h.25v.12z"/><path fill="#fff" d="M36.82 20.48l-.08-.23-.11.04z"/><path fill="#fff" d="M36.82 20.48l-.2-.14.07-.1z"/><path fill="#fff" d="M36.53 20.48l.2-.14-.07-.1z"/><path fill="#fff" d="M36.53 20.48l.08-.23.11.04zM35.83 20.65l-.09.3.14.04z"/><path fill="#fff" d="M35.83 20.65l.1.3-.15.04z"/><path fill="#fff" d="M36.13 20.87h-.31v.15z"/><path fill="#fff" d="M36.13 20.87l-.25.18-.09-.13z"/><path fill="#fff" d="M35.54 20.87l.25.18.09-.13z"/><path fill="#fff" d="M35.54 20.87h.31v.15z"/><path fill="#fff" d="M36.02 21.21l-.1-.29-.15.04z"/><path fill="#fff" d="M36.02 21.21l-.25-.18.09-.13z"/><path fill="#fff" d="M35.65 21.21l.25-.18-.09-.13z"/><path fill="#fff" d="M35.65 21.21l.1-.29.14.04zM33.76 22.45l-.09.3.15.04z"/><path fill="#fff" d="M33.76 22.45l.1.3-.15.04z"/><path fill="#fff" d="M34.06 22.67h-.31v.15z"/><path fill="#fff" d="M34.06 22.67l-.25.18-.09-.13z"/><path fill="#fff" d="M33.47 22.67l.25.18.09-.13z"/><path fill="#fff" d="M33.47 22.67h.31v.15z"/><path fill="#fff" d="M33.95 23.01l-.1-.29-.14.05z"/><path fill="#fff" d="M33.95 23.01l-.25-.18.09-.12z"/><path fill="#fff" d="M33.58 23.01l.25-.18-.09-.12z"/><path fill="#fff" d="M33.58 23.01l.1-.29.14.05zM33.75 23.38l-.07.23.11.04z"/><path fill="#fff" d="M33.75 23.38l.08.23-.12.04z"/><path fill="#fff" d="M33.99 23.55h-.25v.12z"/><path fill="#fff" d="M33.99 23.55l-.2.15-.07-.1z"/><path fill="#fff" d="M33.52 23.55l.2.15.07-.1z"/><path fill="#fff" d="M33.52 23.55h.24v.12z"/><path fill="#fff" d="M33.9 23.82l-.08-.23-.11.04z"/><path fill="#fff" d="M33.9 23.82l-.2-.14.07-.1z"/><path fill="#fff" d="M33.61 23.82l.2-.14-.07-.1z"/><path fill="#fff" d="M33.61 23.82l.07-.23.12.04zM34.62 21.84l-.08.23.12.04z"/><path fill="#fff" d="M34.62 21.84l.07.23-.11.04z"/><path fill="#fff" d="M34.85 22.01h-.24v.12z"/><path fill="#fff" d="M34.85 22.01l-.2.14-.07-.1z"/><path fill="#fff" d="M34.38 22.01l.2.14.08-.1z"/><path fill="#fff" d="M34.38 22.01h.25v.12z"/><path fill="#fff" d="M34.76 22.28l-.07-.23-.12.04z"/><path fill="#fff" d="M34.76 22.28l-.2-.14.08-.1z"/><path fill="#fff" d="M34.47 22.28l.2-.14-.07-.1z"/><path fill="#fff" d="M34.47 22.28l.08-.23.12.04zM35.31 21.34l-.1.3.15.04z"/><path fill="#fff" d="M35.31 21.34l.09.3-.14.04z"/><path fill="#fff" d="M35.6 21.56h-.31v.15z"/><path fill="#fff" d="M35.6 21.56l-.25.18-.09-.13z"/><path fill="#fff" d="M35.02 21.56l.24.18.09-.13z"/><path fill="#fff" d="M35.02 21.56h.3v.15z"/><path fill="#fff" d="M35.49 21.9l-.1-.29-.14.04z"/><path fill="#fff" d="M35.49 21.9l-.25-.18.09-.13z"/><path fill="#fff" d="M35.13 21.9l.25-.18-.1-.13z"/><path fill="#fff" d="M35.13 21.9l.09-.29.15.04zM33.73 21.68l-.08.23.12.04z"/><path fill="#fff" d="M33.73 21.68l.07.23-.11.04z"/><path fill="#fff" d="M33.96 21.84h-.24v.13z"/><path fill="#fff" d="M33.96 21.84l-.2.15-.07-.1z"/><path fill="#fff" d="M33.5 21.84l.19.15.08-.1z"/><path fill="#fff" d="M33.5 21.84h.24v.13z"/><path fill="#fff" d="M33.87 22.12l-.07-.23-.12.03z"/><path fill="#fff" d="M33.87 22.12l-.2-.15.08-.09z"/><path fill="#fff" d="M33.58 22.12l.2-.15-.07-.09z"/><path fill="#fff" d="M33.58 22.12l.08-.23.12.03zM26.19 17.23l-.1.29.15.05z"/><path fill="#fff" d="M26.19 17.23l.09.29-.14.05z"/><path fill="#fff" d="M26.48 17.44h-.31v.15z"/><path fill="#fff" d="M26.48 17.44l-.25.18-.09-.12z"/><path fill="#fff" d="M25.9 17.44l.25.18.08-.12z"/><path fill="#fff" d="M25.9 17.44h.3v.15z"/><path fill="#fff" d="M26.37 17.78l-.1-.29-.14.05z"/><path fill="#fff" d="M26.37 17.78l-.25-.18.09-.12z"/><path fill="#fff" d="M26.01 17.78l.25-.18-.09-.12z"/><path fill="#fff" d="M26.01 17.78l.09-.29.15.05zM31.8 16.51l-.08.23.12.04z"/><path fill="#fff" d="M31.8 16.51l.08.23-.12.04z"/><path fill="#fff" d="M32.03 16.68h-.24v.12z"/><path fill="#fff" d="M32.03 16.68l-.19.14-.08-.1z"/><path fill="#fff" d="M31.57 16.68l.2.14.07-.1z"/><path fill="#fff" d="M31.57 16.68h.24v.12z"/><path fill="#fff" d="M31.95 16.95l-.08-.23-.12.04z"/><path fill="#fff" d="M31.95 16.95l-.2-.14.07-.1z"/><path fill="#fff" d="M31.66 16.95l.2-.14-.08-.1z"/><path fill="#fff" d="M31.66 16.95l.07-.23.12.04zM29.46 20.67l-.11.36.17.05z"/><path fill="#fff" d="M29.46 20.67l.12.36-.18.05z"/><path fill="#fff" d="M29.81 20.93h-.37v.18z"/><path fill="#fff" d="M29.81 20.93l-.29.22-.11-.16z"/><path fill="#fff" d="M29.11 20.93l.3.22.11-.16z"/><path fill="#fff" d="M29.11 20.93h.37v.18z"/><path fill="#fff" d="M29.68 21.34l-.11-.35-.18.06z"/><path fill="#fff" d="M29.68 21.34l-.3-.22.11-.14z"/><path fill="#fff" d="M29.25 21.34l.29-.22-.11-.14z"/><path fill="#fff" d="M29.25 21.34l.11-.35.17.06zM30.46 19.03l-.1.29.15.05z"/><path fill="#fff" d="M30.46 19.03l.09.29-.15.05z"/><path fill="#fff" d="M30.75 19.24h-.31v.15z"/><path fill="#fff" d="M30.75 19.24l-.25.18-.09-.12z"/><path fill="#fff" d="M30.16 19.24l.25.18.09-.12z"/><path fill="#fff" d="M30.16 19.24h.31v.15z"/><path fill="#fff" d="M30.64 19.58l-.1-.29-.14.05z"/><path fill="#fff" d="M30.64 19.58l-.25-.18.09-.12z"/><path fill="#fff" d="M30.28 19.58l.24-.18-.09-.12z"/><path fill="#fff" d="M30.28 19.58l.09-.29.15.05zM29.46 18.26l-.09.29.14.05z"/><path fill="#fff" d="M29.46 18.26l.1.29-.15.05z"/><path fill="#fff" d="M29.75 18.47h-.3v.15z"/><path fill="#fff" d="M29.75 18.47l-.24.18-.09-.12z"/><path fill="#fff" d="M29.17 18.47l.25.18.09-.12z"/><path fill="#fff" d="M29.17 18.47h.31v.15z"/><path fill="#fff" d="M29.64 18.81l-.09-.29-.15.05z"/><path fill="#fff" d="M29.64 18.81l-.25-.18.09-.12z"/><path fill="#fff" d="M29.28 18.81l.25-.18-.09-.12z"/><path fill="#fff" d="M29.28 18.81l.1-.29.14.05zM28.6 19.09l-.08.23.12.04z"/><path fill="#fff" d="M28.6 19.09l.07.23-.11.04z"/><path fill="#fff" d="M28.83 19.26h-.24v.12z"/><path fill="#fff" d="M28.83 19.26l-.2.15-.07-.1z"/><path fill="#fff" d="M28.36 19.26l.2.15.07-.1z"/><path fill="#fff" d="M28.36 19.26h.25v.12z"/><path fill="#fff" d="M28.74 19.53l-.07-.23-.12.04z"/><path fill="#fff" d="M28.74 19.53l-.2-.14.08-.1z"/><path fill="#fff" d="M28.45 19.53l.2-.14-.07-.1z"/><path fill="#fff" d="M28.45 19.53l.08-.23.11.04zM29.03 19.76l-.05.16.08.03z"/><path fill="#fff" d="M29.03 19.76l.06.16-.09.03z"/><path fill="#fff" d="M29.2 19.88h-.18v.09z"/><path fill="#fff" d="M29.2 19.88l-.15.1-.05-.07z"/><path fill="#fff" d="M28.86 19.88l.15.1.05-.07z"/><path fill="#fff" d="M28.86 19.88h.18v.09z"/><path fill="#fff" d="M29.13 20.07l-.05-.16-.09.02z"/><path fill="#fff" d="M29.13 20.07l-.14-.1.05-.07z"/><path fill="#fff" d="M28.93 20.07l.14-.1-.05-.07z"/><path fill="#fff" d="M28.93 20.07l.05-.16.08.02zM32.04 22.66l-.1.3.15.04z"/><path fill="#fff" d="M32.04 22.66l.09.3-.15.04z"/><path fill="#fff" d="M32.33 22.88h-.31v.15z"/><path fill="#fff" d="M32.33 22.88l-.25.18-.09-.13z"/><path fill="#fff" d="M31.74 22.88l.25.18.09-.13z"/><path fill="#fff" d="M31.74 22.88h.31v.15z"/><path fill="#fff" d="M32.22 23.22l-.1-.29-.15.05z"/><path fill="#fff" d="M32.22 23.22l-.25-.18.09-.12z"/><path fill="#fff" d="M31.85 23.22l.25-.18-.09-.12z"/><path fill="#fff" d="M31.85 23.22l.1-.29.14.05zM32.77 21.97l-.07.23.11.04z"/><path fill="#fff" d="M32.77 21.97l.08.23-.12.04z"/><path fill="#fff" d="M33 22.14h-.24v.12z"/><path fill="#fff" d="M33 22.14l-.19.14-.08-.1z"/><path fill="#fff" d="M32.54 22.14l.2.14.07-.1z"/><path fill="#fff" d="M32.54 22.14h.24v.12z"/><path fill="#fff" d="M32.91 22.41l-.07-.23-.12.04z"/><path fill="#fff" d="M32.91 22.41l-.19-.14.07-.1z"/><path fill="#fff" d="M32.63 22.41l.19-.14-.07-.1z"/><path fill="#fff" d="M32.63 22.41l.07-.23.12.04zM31.36 21.76l-.08.23.12.04z"/><path fill="#fff" d="M31.36 21.76l.07.23-.11.04z"/><path fill="#fff" d="M31.59 21.93h-.25v.12z"/><path fill="#fff" d="M31.59 21.93l-.2.14-.07-.1z"/><path fill="#fff" d="M31.12 21.93l.2.14.07-.1z"/><path fill="#fff" d="M31.12 21.93h.25v.12z"/><path fill="#fff" d="M31.5 22.2l-.07-.23-.12.04z"/><path fill="#fff" d="M31.5 22.2l-.2-.15.07-.09z"/><path fill="#fff" d="M31.21 22.2l.2-.15-.07-.09z"/><path fill="#fff" d="M31.21 22.2l.08-.23.11.04zM26.01 21.38l-.11.35.17.05z"/><path fill="#fff" d="M26.01 21.38l.12.35-.18.05z"/><path fill="#fff" d="M26.36 21.63H26v.19z"/><path fill="#fff" d="M26.36 21.63l-.29.22-.11-.15z"/><path fill="#fff" d="M25.66 21.63l.3.22.11-.15z"/><path fill="#fff" d="M25.66 21.63h.37v.19z"/><path fill="#fff" d="M26.23 22.04l-.11-.35-.18.06z"/><path fill="#fff" d="M26.23 22.04l-.3-.21.11-.15z"/><path fill="#fff" d="M25.8 22.04l.29-.21-.1-.15z"/><path fill="#fff" d="M25.8 22.04l.11-.35.18.06zM29.46 23.78l-.04.12.06.02z"/><path fill="#fff" d="M29.46 23.78l.04.12-.06.02z"/><path fill="#fff" d="M29.58 23.87h-.12v.06z"/><path fill="#fff" d="M29.58 23.87l-.1.07-.04-.05z"/><path fill="#fff" d="M29.35 23.87l.1.07.03-.05z"/><path fill="#fff" d="M29.35 23.87h.12v.06z"/><path fill="#fff" d="M29.53 24.01l-.03-.12-.06.02z"/><path fill="#fff" d="M29.53 24.01l-.1-.08.04-.04z"/><path fill="#fff" d="M29.39 24.01l.1-.08-.04-.04z"/><path fill="#fff" d="M29.39 24.01l.04-.12.06.02z"/></svg>