<svg xmlns="http://www.w3.org/2000/svg" viewBox="0 0 58.5 34.13"><path fill="#ea0020" d="M0 0h13.76v34.13H0zM44.74 0H58.5v34.13H44.74z"/><path fill="#fff" d="M13.76 0h30.98v34.13H13.76z"/><path d="M29.25 4.43l-2.03 3.94c-.23.43-.64.39-1.06.15l-1.46-.8 1.1 6.06c.23 1.11-.51 1.11-.87.63l-2.56-2.99-.42 1.52a.5.5 0 0 1-.58.36l-3.24-.71.85 3.22c.18.72.32 1.02-.18 1.2l-1.15.56 5.58 4.72c.22.18.33.5.25.79l-.49 1.67c1.92-.23 3.64-.44 5.56-.67.17 0 .45.15.45.35l-.26 6.12h.94l-.15-6.11c0-.2.26-.37.43-.37 1.92.23 3.64.44 5.57.67l-.49-1.67c-.08-.29.03-.61.25-.79l5.58-4.72-1.16-.56c-.51-.19-.37-.49-.18-1.2l.85-3.22-3.24.71a.5.5 0 0 1-.58-.36l-.42-1.52-2.56 2.99c-.36.48-1.1.48-.87-.63l1.09-6.06-1.47.79c-.41.24-.83.28-1.06-.15l-2.02-3.92z" fill="#ea0020"/></svg>