<svg xmlns="http://www.w3.org/2000/svg" viewBox="0 0 58.92 34.37"><path fill="#da1841" d="M0 0h58.92v17.19H0z"/><path fill="#fff" d="M0 17.19h58.92v17.19H0zM17.68 8.59c0 3.57-2.89 6.47-6.46 6.47s-6.46-2.9-6.46-6.47 2.89-6.46 6.46-6.46 6.46 2.9 6.46 6.46"/><path d="M19.71 8.59c0 3.37-2.73 6.11-6.11 6.11s-6.1-2.73-6.1-6.11c0-3.37 2.74-6.11 6.11-6.11s6.1 2.74 6.1 6.11" fill="#da1841"/><path fill="#fff" d="M12.02 8.75l-.88-.67-.88.67.34-1.09-.88-.67 1.09.01.33-1.09.34 1.09 1.08-.01-.88.67zM18.91 8.75l-.88-.67-.88.67.34-1.09-.88-.67L17.7 7l.33-1.09.34 1.09 1.08-.01-.88.67zM15.47 6.19l-.88-.67-.88.67.34-1.08-.88-.67h1.09l.33-1.09.33 1.09h1.09l-.88.67zM13.31 12.84l-.88-.67-.88.67.34-1.08-.88-.67h1.09l.33-1.09.33 1.09h1.09l-.88.67zM17.62 12.84l-.88-.67-.87.67.33-1.08-.88-.67h1.09l.33-1.09.34 1.09h1.08l-.88.67z"/></svg>